# xmcd
#
# Track frame offsets: 
#        150
#        12774
#        25298
#        44555
#        56344
#        69330
#        84295
#        96969
#        105727
#        121601
#        144955
#        169951
#        181619
#        192961
#        212160
#        229110
#        241030
#        253508
#        277897
#        313258
#
# Disc length: 4351 seconds
#
# Revision: 0
# Processed by: cddbd v1.5.1PL0 Copyright (c) Steve Scherf et al.
# Submitted via: ExactAudioCopy v0.95a5
#
DISCID=0310fd14
DTITLE=Canned Heat - Hallelujah and Future Blues
DYEAR=1968
DGENRE=Blues
TTITLE0=Same All Over (Hallelujah 1968 Trks 1-11)
TTITLE1=Change My Ways
TTITLE2=Canned Heat
TTITLE3=Sic 'Em Pigs
TTITLE4=I'm Her Man
TTITLE5=Time Was
TTITLE6=Do Not Enter
TTITLE7=Big Fat
TTITLE8=Huautla
TTITLE9=Get Off My Back
TTITLE10=Down in the Gutter, But Free
TTITLE11=Sugar Bee   (Future Blues 1970)
TTITLE12=Shake It And Break It
TTITLE13=That's All Right Mama
TTITLE14=My Time Ain't Long
TTITLE15=Skat
TTITLE16=Lets Work Together
TTITLE17=London Blues
TTITLE18=So Sad (The World's in a Tangle)
TTITLE19=Future Blues
EXTD=
EXTT0=
EXTT1=
EXTT2=
EXTT3=
EXTT4=
EXTT5=
EXTT6=
EXTT7=
EXTT8=
EXTT9=
EXTT10=
EXTT11=
EXTT12=
EXTT13=
EXTT14=
EXTT15=
EXTT16=
EXTT17=
EXTT18=
EXTT19=
PLAYORDER=
